<?xml version="1.0" encoding="UTF-8" standalone="no"?>
<svg
    id="Layer_1"
    data-name="Layer 1"
    viewBox="0 0 24 24"
    width="512"
    height="512"
    version="1.1"
    xmlns="http://www.w3.org/2000/svg"
    xmlns:svg="http://www.w3.org/2000/svg">
    <defs
        id="defs1" />
    <path
        d="m 22.499416,13.778416 v 4.721 c 0,2.757 -2.243,5 -5,5 h -6.969 c -2.1369996,0 -4.1459996,-0.832 -5.6569996,-2.343 l -2.308,-2.308 c -0.688,-0.688 -1.066,-1.601 -1.066,-2.573 v -0.006 c 10e-4,-0.975 0.383,-1.889 1.075,-2.576 l 3.945,-3.9189996 -0.02,-7.271 c 0,-0.884 0.385,-1.717 1.057,-2.289 0.671,-0.571 1.561,-0.817 2.439,-0.674 1.4269996,0.232 2.5029996,1.551 2.5029996,3.066 v 5.073 l 5.981,1.196 c 2.329,0.466 4.019,2.5279996 4.019,4.9029996 z m -18.9999996,2.496 c 0,0.438 0.17,0.85 0.48,1.159 l 2.308,2.308 c 1.133,1.133 2.64,1.757 4.2429996,1.757 h 6.969 c 1.654,0 3,-1.346 3,-3 v -4.721 c 0,-1.425 -1.014,-2.662 -2.412,-2.942 l -6.785,-1.3569996 c -0.467,-0.093 -0.804,-0.504 -0.804,-0.98 v -5.893 c 0,-0.537 -0.362,-1.017 -0.8249996,-1.093 -0.303,-0.049 -0.595,0.03 -0.823,0.224 -0.224,0.19 -0.353,0.468 -0.353,0.762 l 0.039,13.9969996 v 0.003 c 0,0.551 -0.446,0.999 -0.997,1 -0.552,0.001 -1.001,-0.445 -1.003,-0.997 l -0.011,-3.917 -2.544,2.527 c -0.312,0.31 -0.483,0.722 -0.484,1.161 v 0.002 z"
        id="path1" />
</svg>

